<svg viewBox="0 0 24 24" xmlns="http://www.w3.org/2000/svg"><g fill="#A0A9B3"><path opacity="0" d="M0 0h24v24H0Z" transform="rotate(-90 12 12)"/><path d="M2 12v0c0 5.52 4.47 10 10 10 5.52 0 10-4.48 10-10 0-5.53-4.48-10-10-10v0C6.47 2 2 6.47 2 12Zm11.86-3.69l2.86 3v0c.04.04.07.09.1.15v0c.04.04.07.1.1.16h-.001c.1.24.1.51 0 .76v0c-.05.12-.12.23-.21.33l-3 3v0c-.4.39-1.03.39-1.42 0 -.4-.4-.4-1.03-.001-1.42l1.3-1.29H7.99v0c-.56 0-1-.45-1-1 0-.56.44-1 1-1h5.66L12.4 9.69v0c-.39-.41-.37-1.04.03-1.42 .4-.39 1.03-.37 1.41.03Z"/></g></svg>